<?xml version="1.0" encoding="UTF-8"?>
<!DOCTYPE svg PUBLIC "-//W3C//DTD SVG 1.1//EN" "http://www.w3.org/Graphics/SVG/1.1/DTD/svg11.dtd">
<!-- Creator: CorelDRAW -->
<svg xmlns="http://www.w3.org/2000/svg" xml:space="preserve" width="1.33326in" height="0.243323in" version="1.1" style="shape-rendering:geometricPrecision; text-rendering:geometricPrecision; image-rendering:optimizeQuality; fill-rule:evenodd; clip-rule:evenodd"
viewBox="0 0 16.05 2.93"
 xmlns:xlink="http://www.w3.org/1999/xlink"
 xmlns:xodm="http://www.corel.com/coreldraw/odm/2003">
 <defs>
  <style type="text/css">
   <![CDATA[
    .fil0 {fill:#FEFEFE}
   ]]>
  </style>
 </defs>
 <g id="Layer_x0020_1">
  <metadata id="CorelCorpID_0Corel-Layer"/>
  <g id="_1179292918704">
   <path class="fil0" d="M9.95 0.53l0.29 0c0.17,0 -0.01,0.19 -0.04,0.24l-0.15 0.22c-0.12,0.18 -0.25,0.35 -0.37,0.53l-0.18 0.26c-0.01,0.02 -0.02,0.03 -0.03,0.04 -0.02,0.03 -0.06,0.06 -0.06,0.1 0,0.04 0.12,0.04 0.16,0.04 0.14,-0.02 0.5,0.02 0.59,-0.02 0.05,-0.02 0.07,-0.06 0.1,-0.1 0.01,-0.02 0.03,-0.04 0.04,-0.06l0.71 -1.04c0.04,-0.06 0.08,-0.12 0.13,-0.18 0.02,-0.02 0.05,-0.03 0.08,-0.03l0.43 0c0.03,0 0.04,0.03 0.04,0.05 0,0.04 -0.08,0.14 -0.11,0.17l-0.75 1.07c-0.14,0.19 0.06,0.14 0.31,0.15 0.04,0 0.05,0.01 0.09,0.01l0.35 -0c0.1,0 0.14,-0.06 0.19,-0.13l0.77 -1.14c0.04,-0.07 0.09,-0.13 0.09,-0.24 0,-0.13 -0.07,-0.25 -0.17,-0.3 -0.18,-0.1 -0.52,-0.06 -0.75,-0.06 -0.11,0 -0.2,-0.01 -0.31,-0.01l-0.65 0c-0.11,0 -0.2,-0.01 -0.32,-0.01 -0.21,0 -0.43,-0 -0.64,0 -0.05,0 -0.09,-0.01 -0.15,-0.01 -0.09,0 -0.24,-0.01 -0.32,0 -0.07,0.01 -0.07,0.02 -0.11,0.06 -0.05,0.05 -0.09,0.13 -0.13,0.19l-0.4 0.57c-0.04,0.07 -0.09,0.12 -0.13,0.19l-0.2 0.29c-0.01,0.02 -0.02,0.03 -0.03,0.05l-0.3 0.43c-0.07,0.1 -0.04,0.11 0.14,0.11l0.64 -0.01c0.05,-0 0.09,-0.02 0.12,-0.04 0.03,-0.03 0.05,-0.06 0.07,-0.09l0.8 -1.14c0.05,-0.08 0.09,-0.15 0.17,-0.15z"/>
   <path class="fil0" d="M0.57 1.02c0,0.13 0.26,0.16 0.36,0.16l2.07 -0c0.04,-0 0.09,0 0.11,0.02 0,0 0.02,0.02 0.02,0.02 0,0.06 -0.07,0.15 -0.09,0.19 -0.04,0.06 -0.1,0.15 -0.16,0.19 -0.04,0.03 -0.11,0.03 -0.18,0.03l-1.7 0c-0.1,0 -0.18,0.01 -0.28,0.01 -0.17,0 -0.42,-0.02 -0.52,0.04 -0.07,0.04 -0.18,0.18 -0.19,0.23 -0.02,0.09 0.22,0.05 0.35,0.06 0.08,0.01 0.2,0 0.29,0l1.98 0c0.3,0 0.62,0.04 0.86,-0.12 0.09,-0.06 0.16,-0.1 0.24,-0.18l0.07 -0.07c0.02,-0.02 0.05,-0.05 0.07,-0.07 0.1,-0.13 0.13,-0.15 0.25,-0.32 0.11,-0.16 0.15,-0.3 -0.06,-0.36 -0.04,-0.01 -0.07,-0.02 -0.12,-0.02 -0.16,0 -0.24,-0.02 -0.42,-0 -0.08,0.01 -0.2,0 -0.29,0l-1.45 0c-0.08,0 -0.14,-0.06 -0.07,-0.16 0.02,-0.03 0.03,-0.05 0.05,-0.07 0.16,-0.25 0.21,-0.24 0.48,-0.24 0.32,0 0.63,-0.01 0.95,-0.01l1.19 0c0.23,0 0.21,0.02 0.34,-0.14 0.25,-0.31 -0.11,-0.18 -0.34,-0.21 -0.12,-0.02 -0.34,-0 -0.47,-0 -0.16,0 -0.31,-0.01 -0.47,-0.01l-0.59 0c-0.31,0 -0.61,0 -0.92,0.01 -0.21,0.01 -0.45,0.04 -0.64,0.15 -0.04,0.03 -0.08,0.05 -0.12,0.08 -0.06,0.05 -0.18,0.15 -0.23,0.21 -0.05,0.06 -0.09,0.1 -0.16,0.19l-0.16 0.24c-0.02,0.04 -0.06,0.09 -0.06,0.14z"/>
   <path class="fil0" d="M5.89 0.42c0.05,0.02 0.74,0.01 0.86,0.01 0.11,0 0.67,-0.01 0.76,0 0.02,0 0.03,0 0.04,0.01 0.07,0.05 -0.01,0.14 -0.04,0.19l-0.57 0.82c-0.09,0.14 -0.1,0.18 -0.29,0.18 -0.08,-0 -0.15,0.01 -0.23,0.01 -0.15,-0 -0.31,-0 -0.46,-0l-0.57 0.01c-0.04,0 -0.07,0.01 -0.11,0.01 -0.04,-0 -0.07,-0 -0.11,-0.01 -0.06,-0 -0.13,-0 -0.06,-0.1 0.03,-0.05 0.18,-0.2 0.06,-0.22 -0.04,-0.01 -0.06,0 -0.09,0 -0.06,0 -0.13,0 -0.19,0l-0.56 0.01c-0.05,0.01 -0.15,0.17 -0.17,0.21 -0.04,0.05 -0.05,0.1 -0.05,0.17 0,0.24 0.43,0.25 0.6,0.25l1.48 0.01c0.04,0 0.07,-0 0.11,-0 0.04,0 0.06,0.01 0.1,0.01 0.19,-0 0.7,0.01 0.84,-0.01 0.05,-0.01 0.12,-0.03 0.17,-0.04 0.01,-0 0.02,-0.01 0.04,-0.01 0.17,-0.08 0.29,-0.26 0.39,-0.41l0.71 -1c0.03,-0.04 0.06,-0.08 0.09,-0.13 0.03,-0.04 0.06,-0.08 0.09,-0.13 0.1,-0.14 0.19,-0.21 -0.28,-0.17 -0.12,0.01 -0.29,0 -0.41,0l-1.85 0.01c-0.12,0.02 -0.1,0.03 -0.18,0.13l-0.09 0.12c-0.02,0.03 -0.03,0.04 -0.02,0.07z"/>
   <path class="fil0" d="M11.01 2.79l4.73 0c0,-0.02 0.02,-0.03 0.03,-0.05l0.2 -0.24c0.02,-0.02 0.07,-0.08 0.08,-0.1l-5.03 0 0 0.39z"/>
   <path class="fil0" d="M15.85 1.87l-0.51 0c-0.04,0 -0.07,-0.02 -0.07,-0.06l0 -0.38c0,-0.03 0.03,-0.06 0.06,-0.06l0.51 0c0.04,0 0.08,0.02 0.08,0.06l0 0.37c0,0.04 -0.03,0.06 -0.06,0.06zm0.2 -0.39l0 0.31c-0.01,0.13 -0.07,0.19 -0.27,0.19l-0.38 0c-0.09,0 -0.2,-0.01 -0.25,-0.08 -0.01,-0.02 -0.03,-0.06 -0.03,-0.08l0 -0.39c0,-0.06 0.04,-0.12 0.1,-0.14 0.09,-0.04 0.42,-0.03 0.54,-0.03 0.19,0 0.29,0.03 0.29,0.22z"/>
   <path class="fil0" d="M13.21 1.28l0 0.47c0,0.13 0.03,0.21 0.16,0.23 0.09,0.02 0.41,0.01 0.52,0.01 0.19,0 0.23,-0.06 0.23,-0.24l0 -0.47c0,-0.03 -0.05,-0.02 -0.14,-0.02l0 0.55c0,0.04 -0.03,0.06 -0.06,0.06l-0.5 0c-0.04,0 -0.06,-0.03 -0.06,-0.08l0 -0.53c-0.09,0 -0.14,-0.01 -0.14,0.02z"/>
   <path class="fil0" d="M12.14 1.99c0.19,0 0.11,0.05 0.31,-0.25l0.22 -0.33c0.01,0.03 0.18,0.28 0.21,0.34 0.02,0.03 0.03,0.05 0.05,0.08 0.02,0.03 0.09,0.15 0.11,0.16 0.02,0 0.11,0 0.14,0 -0.01,-0.03 -0.31,-0.48 -0.35,-0.55 -0.02,-0.03 -0.04,-0.06 -0.06,-0.09 -0.07,-0.1 -0.04,-0.09 -0.14,-0.09 -0.02,0 -0.05,0.06 -0.07,0.08l-0.18 0.28c-0.04,0.06 -0.08,0.12 -0.12,0.18 -0.02,0.03 -0.11,0.16 -0.12,0.19z"/>
   <path class="fil0" d="M14.19 1.28c0,0.07 -0.01,0.1 0.02,0.1l0.36 0 0 0.59c0,0.03 0.05,0.02 0.14,0.02l0 -0.61 0.35 0c0.03,0 0.02,-0.03 0.02,-0.1 0,-0.01 -0,-0.02 -0.02,-0.02l-0.85 0c-0.01,0 -0.02,0 -0.02,0.02z"/>
   <polygon class="fil0" points="10.44,2.79 10.87,2.79 10.87,2.4 10.44,2.4 "/>
   <path class="fil0" d="M15.39 1.49l0 0.26c0,0.03 0.01,0.04 0.04,0.04l0.34 0c0.03,0 0.04,-0.01 0.04,-0.04l0 -0.26c0,-0.03 -0.01,-0.04 -0.04,-0.04l-0.34 0c-0.03,0 -0.04,0.01 -0.04,0.04z"/>
   <polygon class="fil0" points="10.02,2.79 10.35,2.79 10.35,2.4 10.02,2.4 "/>
   <path class="fil0" d="M7.11 2.41c0,0.05 0.01,0.09 0.06,0.12 0.08,0.05 0.2,0.03 0.22,0.1 0.01,0.04 -0.03,0.08 -0.07,0.08 -0.06,0 -0.09,0.01 -0.12,-0.05 -0.02,-0.03 -0.02,-0.05 -0.06,-0.06 -0.06,0.03 -0.05,0.08 -0.01,0.13 0.08,0.11 0.37,0.09 0.37,-0.1 0,-0.17 -0.29,-0.13 -0.29,-0.22 0,-0.04 0.05,-0.06 0.09,-0.06 0.1,0 0.07,0.1 0.14,0.1 0.02,0 0.04,-0.03 0.04,-0.05 0.01,-0.07 -0.08,-0.11 -0.14,-0.12 -0.1,-0.02 -0.22,0.03 -0.22,0.13z"/>
   <path class="fil0" d="M5.55 2.39c0.01,0.02 0.01,0.02 0.02,0.04 0.01,0.04 0.05,0.12 0.05,0.15l-0.13 0c0,-0.04 0.05,-0.14 0.06,-0.19zm-0.18 0.4c0.07,0 0.06,-0.13 0.1,-0.13l0.17 0c0.04,0 0.03,0.13 0.1,0.13 0.1,0 0.02,-0.15 0,-0.19 -0.02,-0.04 -0.04,-0.08 -0.05,-0.13 -0.01,-0.03 -0.02,-0.04 -0.03,-0.06 -0.01,-0.03 -0.02,-0.04 -0.03,-0.07 -0.02,-0.04 -0.06,-0.08 -0.11,-0.05 -0.03,0.02 -0.05,0.08 -0.06,0.12 -0.02,0.04 -0.13,0.32 -0.13,0.33 0,0.02 0.03,0.05 0.05,0.05z"/>
   <path class="fil0" d="M3.94 2.54c0,0.06 0.02,0.14 0.06,0.18 0.02,0.02 0.03,0.04 0.07,0.05 0.08,0.04 0.22,0.03 0.28,-0.05 0.06,-0.07 0.05,-0.14 -0,-0.14 -0.05,0 -0.05,0.04 -0.07,0.07 -0.04,0.07 -0.23,0.11 -0.23,-0.13 0,-0.09 0.04,-0.17 0.13,-0.17 0.13,0 0.1,0.11 0.17,0.11 0.07,0 0.06,-0.11 -0.04,-0.17 -0.05,-0.03 -0.1,-0.04 -0.17,-0.02 -0.12,0.03 -0.18,0.14 -0.18,0.25z"/>
   <polygon class="fil0" points="9.66,2.79 9.93,2.79 9.93,2.4 9.66,2.4 "/>
   <path class="fil0" d="M0.2 2.51l-0.1 0 0 -0.15c0.1,0 0.17,-0.01 0.17,0.08 0,0.04 -0.03,0.06 -0.08,0.06zm-0.2 -0.18l0 0.41c0,0.06 0.1,0.08 0.1,-0.01l0 -0.13c0.1,0 0.28,0.02 0.28,-0.15 0,-0.06 -0.02,-0.1 -0.06,-0.13 -0.06,-0.04 -0.32,-0.06 -0.32,0.01z"/>
   <path class="fil0" d="M3.34 2.72c-0.05,0 -0.08,0.01 -0.08,-0.05 0,-0.03 0.04,-0.04 0.07,-0.04 0.03,-0.01 0.06,-0.01 0.09,-0.02 0,0.03 -0,0.06 -0.01,0.08 -0.01,0.02 -0.04,0.03 -0.06,0.03zm-0.15 -0.18c0.11,0.03 0.02,-0.06 0.17,-0.06 0.05,0 0.05,0.04 0.06,0.07 -0.02,0 -0.19,0.04 -0.22,0.07 -0.04,0.04 -0.05,0.18 0.11,0.18 0.05,0 0.09,-0.03 0.12,-0.05 0.07,0.11 0.1,0.01 0.1,0.01 0,-0.04 -0.01,-0.04 -0.01,-0.09 0,-0.03 0,-0.07 0,-0.1 -0,-0.07 -0.02,-0.12 -0.07,-0.14 -0.05,-0.02 -0.13,-0.02 -0.18,0 -0.05,0.02 -0.09,0.06 -0.07,0.12z"/>
   <path class="fil0" d="M4.62 2.72c-0.02,0 -0.08,0.01 -0.08,-0.04 0,-0.05 0.11,-0.05 0.15,-0.07 0,0.05 -0.01,0.11 -0.08,0.11zm-0.15 -0.22c0,0.03 0.01,0.04 0.04,0.04 0.04,0 0.02,-0.07 0.12,-0.07 0.05,0 0.06,0.02 0.06,0.07l-0.15 0.03c-0.18,0.04 -0.09,0.28 0.11,0.19 0.02,-0.01 0.03,-0.03 0.06,-0.03 0.01,0.02 0.01,0.02 0.02,0.03 0.05,0.05 0.08,0 0.08,-0.01 0,-0.04 -0.01,-0.05 -0.01,-0.08 -0,-0.03 -0,-0.07 0,-0.1 0,-0.14 -0.06,-0.19 -0.22,-0.16 -0.04,0.01 -0.11,0.04 -0.11,0.09z"/>
   <path class="fil0" d="M1.54 2.48c0.05,0 0.08,0.04 0.08,0.09l-0.16 0c0,-0.05 0.03,-0.09 0.08,-0.09zm-0.18 0.11c0,0.28 0.35,0.21 0.35,0.1 0,-0.01 -0,-0.01 -0.01,-0.03 -0.1,-0.02 -0.03,0.05 -0.17,0.05 -0.05,0 -0.07,-0.04 -0.07,-0.09l0.18 0c0.14,0 0.05,-0.23 -0.11,-0.22 -0.1,0.01 -0.17,0.08 -0.17,0.18z"/>
   <path class="fil0" d="M8.55 2.48c0.05,0 0.08,0.04 0.08,0.09l-0.16 0c0,-0.05 0.03,-0.09 0.08,-0.09zm-0.18 0.11c0,0.28 0.35,0.21 0.35,0.1 0,-0.01 -0,-0.01 -0.01,-0.03 -0.1,-0.02 -0.03,0.05 -0.17,0.05 -0.05,0 -0.07,-0.04 -0.07,-0.09l0.18 0c0.14,0 0.05,-0.23 -0.11,-0.22 -0.1,0.01 -0.17,0.08 -0.17,0.18z"/>
   <path class="fil0" d="M7.78 2.88c0,0.05 0.05,0.05 0.1,0.05 0.06,0 0.09,-0.03 0.11,-0.07l0.05 -0.13c0.02,-0.06 0.1,-0.23 0.1,-0.28 0,-0.02 -0.05,-0.08 -0.09,0.01l-0.08 0.23c-0,-0 -0,-0 -0,-0l-0.07 -0.21c-0.01,-0.03 -0.03,-0.08 -0.07,-0.05 -0.04,0.02 -0.02,0.06 -0,0.1l0.1 0.26c-0,0.01 -0.02,0.05 -0.02,0.05 -0.02,0.02 -0.03,0.02 -0.06,0.02 -0.03,0 -0.05,0 -0.05,0.03z"/>
   <path class="fil0" d="M6.6 2.62c0,-0.05 -0.01,-0.14 0.08,-0.14 0.13,0 0.11,0.23 0.02,0.23 -0.05,0 -0.1,-0.01 -0.1,-0.09zm-0.1 -0.03c0,0.26 0.37,0.25 0.37,0 0,-0.25 -0.37,-0.25 -0.37,0z"/>
   <path class="fil0" d="M2.42 2.61c0,-0.16 0.18,-0.16 0.18,0 0,0.15 -0.18,0.15 -0.18,0zm-0.1 -0.02c0,0.05 -0,0.06 0.02,0.1 0.06,0.14 0.35,0.16 0.35,-0.1 0,-0.05 -0.03,-0.1 -0.05,-0.13 -0.11,-0.1 -0.32,-0.04 -0.32,0.13z"/>
   <path class="fil0" d="M0.91 2.71c-0.09,0 -0.1,-0.04 -0.1,-0.13 0,-0.12 0.18,-0.14 0.18,0.02 0,0.05 -0.03,0.11 -0.08,0.11zm-0.03 0.08c0.25,0 0.24,-0.31 0.09,-0.37 -0.3,-0.1 -0.35,0.37 -0.09,0.37z"/>
   <path class="fil0" d="M2.76 2.49l0 0.22c0,0.04 0.01,0.08 0.05,0.08 0.12,0 -0.04,-0.31 0.13,-0.31 0.06,0 0.06,0.08 0.06,0.15 -0,0.06 -0.02,0.16 0.04,0.16 0.04,0 0.05,-0.03 0.05,-0.06 0,-0.15 0.03,-0.28 -0.09,-0.31 -0.03,-0.01 -0.06,-0.01 -0.09,0 -0.03,0.01 -0.04,0.03 -0.06,0.05 -0.01,-0.07 -0.1,-0.09 -0.1,0.03z"/>
   <path class="fil0" d="M5.85 2.46c0,0.17 -0.03,0.33 0.12,0.33 0.08,0 0.08,-0.03 0.12,-0.06 0,0.09 0.09,0.06 0.09,0.02l0 -0.29c0,-0.04 -0.03,-0.06 -0.07,-0.04 -0.04,0.02 -0.03,0.06 -0.03,0.11 0,0.1 0.02,0.19 -0.09,0.19 -0.11,0 -0.01,-0.26 -0.08,-0.3 -0.03,-0.02 -0.07,0 -0.07,0.04z"/>
   <path class="fil0" d="M1.77 2.52c0,0.09 0.1,0.1 0.17,0.12 0.08,0.03 0.06,0.08 0.01,0.08 -0.14,0 -0.07,-0.07 -0.15,-0.07 -0.02,0 -0.04,0.02 -0.04,0.04 -0,0.05 0.07,0.1 0.14,0.1 0.08,0 0.18,-0.02 0.18,-0.11 0,-0.09 -0.1,-0.1 -0.17,-0.12 -0.03,-0.01 -0.09,-0.03 -0.04,-0.06 0.02,-0.01 0.03,-0.01 0.05,-0.01 0.06,0 0.06,0.06 0.1,0.06 0.09,0 0.05,-0.13 -0.11,-0.13 -0.07,0 -0.15,0.04 -0.15,0.11z"/>
   <polygon class="fil0" points="9.41,2.79 9.57,2.79 9.57,2.4 9.41,2.4 "/>
   <path class="fil0" d="M1.16 2.4l0 0.03c-0.05,0 -0.05,0.01 -0.07,0.04 0.02,0.04 0.02,0.04 0.07,0.04l0 0.23c0,0.1 0.1,0.07 0.1,0.03l0 -0.25c0.05,0 0.04,-0 0.07,-0.01 0.01,-0.04 0.02,-0.07 -0.07,-0.07 0,-0.1 0.04,-0.06 0.09,-0.06 0.02,-0.02 0.02,-0.01 0.02,-0.04 0,-0.04 -0.09,-0.04 -0.13,-0.03 -0.05,0.01 -0.07,0.05 -0.07,0.11z"/>
   <path class="fil0" d="M7.59 2.42c-0.07,0.01 -0.07,0.08 0,0.08 0,0.2 -0.03,0.29 0.11,0.29 0.05,0 0.07,-0.01 0.09,-0.04 -0.02,-0.03 -0.02,-0.04 -0.05,-0.03 -0.08,0.01 -0.06,-0.02 -0.06,-0.22 0.11,0 0.1,-0.08 0,-0.08l0 -0.08c0,-0.04 -0.04,-0.06 -0.07,-0.04 -0.03,0.02 -0.02,0.07 -0.02,0.12z"/>
   <path class="fil0" d="M6.29 2.42c-0.07,0.01 -0.08,0.08 0,0.08l0 0.2c0,0.13 0.2,0.1 0.2,0.04 0,-0.04 -0.06,-0.03 -0.1,-0.03 -0.01,-0.06 -0.01,-0.15 -0.01,-0.22 0.04,0 0.07,0 0.07,-0.04 0,-0.03 -0.04,-0.03 -0.07,-0.03 0,-0.03 0.01,-0.16 -0.07,-0.13 -0.04,0.02 -0.03,0.07 -0.03,0.13z"/>
   <path class="fil0" d="M0.45 2.49l0 0.23c0,0.09 0.09,0.09 0.1,0.02 0.01,-0.03 0,-0.07 0,-0.1 -0,-0.19 0.05,-0.14 0.12,-0.13 0.06,0 0.07,-0.08 -0.04,-0.09 -0.02,-0 -0.04,0 -0.05,0.01 -0.01,0 -0.01,0.01 -0.02,0.01l-0.02 0.02c-0.01,-0.03 -0.02,-0.06 -0.06,-0.05 -0.03,0.01 -0.04,0.04 -0.04,0.08z"/>
   <path class="fil0" d="M8.79 2.52c0,0.09 -0.02,0.27 0.05,0.27 0.11,0 -0.01,-0.3 0.11,-0.3 0.04,0 0.1,0.04 0.1,-0.03 0,-0.03 -0.08,-0.07 -0.13,-0.03 -0.03,0.02 -0.02,0.02 -0.04,0.03 -0,-0.06 -0.1,-0.1 -0.1,0.06z"/>
   <path class="fil0" d="M8.19 2.33l0 0.39c0,0.1 0.1,0.07 0.1,0.03l0 -0.43c0,-0.07 -0.1,-0.06 -0.1,0.01z"/>
   <path class="fil0" d="M3.6 2.33l0 0.41c0,0.07 0.1,0.08 0.1,-0.01l0 -0.39c0,-0.07 -0.1,-0.08 -0.1,-0.01z"/>
   <path class="fil0" d="M4.88 2.47l0 0.27c0,0.03 0.02,0.05 0.04,0.05 0.07,0 0.05,-0.09 0.05,-0.15 -0,-0.21 0.09,-0.13 0.13,-0.13 0.05,0 0.05,-0.09 -0.05,-0.09 -0.05,-0 -0.05,0.03 -0.08,0.05 -0,-0.04 -0.02,-0.05 -0.05,-0.05 -0.03,0 -0.04,0.03 -0.04,0.06z"/>
   <path class="fil0" d="M2.16 2.46l0 0.28c0,0.07 0.1,0.08 0.1,-0.01l0 -0.26c0,-0.07 -0.1,-0.08 -0.1,-0.01z"/>
   <path class="fil0" d="M2.16 2.31c0,0.09 0.1,0.06 0.1,0.01 0,-0.07 -0.1,-0.06 -0.1,-0.01z"/>
  </g>
 </g>
</svg>
