<?xml version="1.0" encoding="UTF-8"?>
<!DOCTYPE svg PUBLIC "-//W3C//DTD SVG 1.1//EN" "http://www.w3.org/Graphics/SVG/1.1/DTD/svg11.dtd">
<!-- Creator: CorelDRAW -->
<svg xmlns="http://www.w3.org/2000/svg" xml:space="preserve" width="0.482945in" height="0.444909in" version="1.1" style="shape-rendering:geometricPrecision; text-rendering:geometricPrecision; image-rendering:optimizeQuality; fill-rule:evenodd; clip-rule:evenodd"
viewBox="0 0 2.08 1.91"
 xmlns:xlink="http://www.w3.org/1999/xlink"
 xmlns:xodm="http://www.corel.com/coreldraw/odm/2003">
 <defs>
  <style type="text/css">
   <![CDATA[
    .fil1 {fill:#FEFEFE}
    .fil0 {fill:#111112}
   ]]>
  </style>
 </defs>
 <g id="Layer_x0020_1">
  <metadata id="CorelCorpID_0Corel-Layer"/>
  <g id="_2573449527008">
   <path class="fil0" d="M0.36 0l1.35 0c0.2,0 0.36,0.16 0.36,0.36l0 1.55 -1.72 0c-0.2,0 -0.36,-0.16 -0.36,-0.36l0 -1.19c0,-0.2 0.16,-0.36 0.36,-0.36z"/>
   <g>
    <g>
     <path class="fil1" d="M1.62 0.72l0.05 0c0.03,0 -0,0.04 -0.01,0.05l-0.02 0.05c-0.02,0.04 -0.04,0.08 -0.06,0.11l-0.03 0.06c-0,0 -0,0.01 -0.01,0.01 -0,0.01 -0.01,0.01 -0.01,0.02 0,0.01 0.02,0.01 0.03,0.01 0.02,-0 0.08,0 0.09,-0 0.01,-0 0.01,-0.01 0.02,-0.02 0,-0 0,-0.01 0.01,-0.01l0.11 -0.23c0.01,-0.01 0.01,-0.03 0.02,-0.04 0,-0 0.01,-0.01 0.01,-0.01l0.07 0c0,0 0.01,0.01 0.01,0.01 0,0.01 -0.01,0.03 -0.02,0.04l-0.12 0.23c-0.02,0.04 0.01,0.03 0.05,0.03 0.01,0 0.01,0 0.01,0l0.06 -0c0.02,0 0.02,-0.01 0.03,-0.03l0.12 -0.25c0.01,-0.01 0.01,-0.03 0.01,-0.05 0,-0.03 -0.01,-0.05 -0.03,-0.07 -0.03,-0.02 -0.08,-0.01 -0.12,-0.01 -0.02,0 -0.03,-0 -0.05,-0l-0.1 0c-0.02,0 -0.03,-0 -0.05,-0 -0.03,0 -0.07,-0 -0.1,0 -0.01,0 -0.01,-0 -0.02,-0 -0.01,0 -0.04,-0 -0.05,0 -0.01,0 -0.01,0 -0.02,0.01 -0.01,0.01 -0.02,0.03 -0.02,0.04l-0.06 0.12c-0.01,0.01 -0.01,0.03 -0.02,0.04l-0.03 0.06c-0,0 -0,0.01 -0.01,0.01l-0.05 0.09c-0.01,0.02 -0.01,0.02 0.02,0.02l0.1 -0c0.01,-0 0.01,-0 0.02,-0.01 0,-0.01 0.01,-0.01 0.01,-0.02l0.13 -0.25c0.01,-0.02 0.01,-0.03 0.03,-0.03z"/>
     <path class="fil1" d="M0.13 0.82c0,0.03 0.04,0.03 0.06,0.03l0.33 -0c0.01,-0 0.01,0 0.02,0 0,0 0,0 0,0.01 0,0.01 -0.01,0.03 -0.01,0.04 -0.01,0.01 -0.02,0.03 -0.03,0.04 -0.01,0.01 -0.02,0.01 -0.03,0.01l-0.27 0c-0.02,0 -0.03,0 -0.04,0 -0.03,0 -0.07,-0 -0.08,0.01 -0.01,0.01 -0.03,0.04 -0.03,0.05 -0,0.02 0.03,0.01 0.06,0.01 0.01,0 0.03,0 0.05,0l0.31 0c0.05,0 0.1,0.01 0.14,-0.03 0.01,-0.01 0.03,-0.02 0.04,-0.04l0.01 -0.02c0,-0.01 0.01,-0.01 0.01,-0.02 0.02,-0.03 0.02,-0.03 0.04,-0.07 0.02,-0.03 0.02,-0.06 -0.01,-0.08 -0.01,-0 -0.01,-0 -0.02,-0 -0.03,0 -0.04,-0 -0.07,-0 -0.01,0 -0.03,0 -0.05,0l-0.23 0c-0.01,0 -0.02,-0.01 -0.01,-0.04 0,-0.01 0,-0.01 0.01,-0.02 0.02,-0.05 0.03,-0.05 0.08,-0.05 0.05,0 0.1,-0 0.15,-0l0.19 0c0.04,0 0.03,0.01 0.05,-0.03 0.04,-0.07 -0.02,-0.04 -0.05,-0.05 -0.02,-0 -0.05,-0 -0.07,-0 -0.03,0 -0.05,-0 -0.07,-0l-0 0 -0.09 0c-0.05,0 -0.1,0 -0.15,0 -0.03,0 -0.07,0.01 -0.1,0.03 -0.01,0.01 -0.01,0.01 -0.02,0.02 -0.01,0.01 -0.03,0.03 -0.04,0.05 -0.01,0.01 -0.02,0.02 -0.02,0.04l-0.03 0.05c-0,0.01 -0.01,0.02 -0.01,0.03z"/>
     <path class="fil1" d="M0.97 0.69c0.01,0.01 0.12,0 0.14,0 0.02,0 0.11,-0 0.12,0 0,0 0,0 0.01,0 0.01,0.01 -0,0.03 -0.01,0.04l-0.09 0.18c-0.01,0.03 -0.02,0.04 -0.05,0.04 -0.01,-0 -0.02,0 -0.04,0 -0.02,-0 -0.05,-0 -0.07,-0l-0.09 0c-0.01,0 -0.01,0 -0.02,0 -0.01,-0 -0.01,-0 -0.02,-0 -0.01,-0 -0.02,0 -0.01,-0.02 0.01,-0.01 0.03,-0.04 0.01,-0.05 -0.01,-0 -0.01,0 -0.01,0 -0.01,0 -0.02,0 -0.03,0l-0.09 0c-0.01,0 -0.02,0.04 -0.03,0.05 -0.01,0.01 -0.01,0.02 -0.01,0.04 0,0.05 0.07,0.05 0.1,0.05l0.24 0c0.01,0 0.01,-0 0.02,-0 0.01,0 0.01,0 0.02,0 0.03,-0 0.11,0 0.13,-0 0.01,-0 0.02,-0.01 0.03,-0.01 0,-0 0,-0 0.01,-0 0.03,-0.02 0.05,-0.06 0.06,-0.09l0.11 -0.22c0,-0.01 0.01,-0.02 0.01,-0.03 0,-0.01 0.01,-0.02 0.01,-0.03 0.02,-0.03 0.03,-0.05 -0.04,-0.04 -0.02,0 -0.05,0 -0.07,0l-0.29 0c-0.02,0 -0.02,0.01 -0.03,0.03l-0.01 0.03c-0,0.01 -0,0.01 -0,0.02z"/>
    </g>
    <g>
     <path class="fil1" d="M1.87 1.29l-0.1 0c-0.01,0 -0.01,-0 -0.01,-0.01l0 -0.07c0,-0.01 0.01,-0.01 0.01,-0.01l0.1 0c0.01,0 0.01,0 0.01,0.01l0 0.07c0,0.01 -0.01,0.01 -0.01,0.01zm0.04 -0.07l0 0.06c-0,0.03 -0.01,0.04 -0.05,0.04l-0.07 0c-0.02,0 -0.04,-0 -0.05,-0.02 -0,-0 -0,-0.01 -0,-0.02l0 -0.08c0,-0.01 0.01,-0.02 0.02,-0.03 0.02,-0.01 0.08,-0 0.1,-0 0.04,0 0.06,0.01 0.06,0.04z"/>
     <path class="fil1" d="M1.36 1.18l0 0.09c0,0.03 0.01,0.04 0.03,0.04 0.02,0 0.08,0 0.1,0 0.04,0 0.04,-0.01 0.04,-0.04l0 -0.09c0,-0.01 -0.01,-0 -0.03,-0l0 0.1c0,0.01 -0.01,0.01 -0.01,0.01l-0.09 0c-0.01,0 -0.01,-0.01 -0.01,-0.01l0 -0.1c-0.02,0 -0.03,-0 -0.03,0z"/>
     <path class="fil1" d="M1.16 1.31c0.04,0 0.02,0.01 0.06,-0.05l0.04 -0.06c0,0.01 0.03,0.05 0.04,0.06 0,0.01 0.01,0.01 0.01,0.02 0,0.01 0.02,0.03 0.02,0.03 0,0 0.02,0 0.03,0 -0,-0.01 -0.06,-0.09 -0.07,-0.1 -0,-0.01 -0.01,-0.01 -0.01,-0.02 -0.01,-0.02 -0.01,-0.02 -0.03,-0.02 -0,0 -0.01,0.01 -0.01,0.02l-0.03 0.05c-0.01,0.01 -0.02,0.02 -0.02,0.04 -0,0.01 -0.02,0.03 -0.02,0.04z"/>
     <path class="fil1" d="M1.55 1.18c0,0.01 -0,0.02 0,0.02l0.07 0 0 0.11c0,0.01 0.01,0 0.03,0l0 -0.12 0.07 0c0.01,0 0,-0.01 0,-0.02 0,-0 -0,-0 -0,-0l-0.16 0c-0,0 -0,0 -0,0z"/>
     <path class="fil1" d="M1.78 1.22l0 0.05c0,0.01 0,0.01 0.01,0.01l0.06 0c0.01,0 0.01,-0 0.01,-0.01l0 -0.05c0,-0.01 -0,-0.01 -0.01,-0.01l-0.06 0c-0.01,0 -0.01,0 -0.01,0.01z"/>
    </g>
    <g>
     <path class="fil1" d="M0.36 1.27l0.7 0c0,-0 0,-0 0.01,-0.01l0.03 -0.04c0,-0 0.01,-0.01 0.01,-0.02l-0.75 0 0 0.06z"/>
     <polygon class="fil1" points="0.27,1.27 0.34,1.27 0.34,1.21 0.27,1.21 "/>
     <polygon class="fil1" points="0.21,1.27 0.26,1.27 0.26,1.21 0.21,1.21 "/>
     <polygon class="fil1" points="0.16,1.27 0.2,1.27 0.2,1.21 0.16,1.21 "/>
     <polygon class="fil1" points="0.12,1.27 0.14,1.27 0.14,1.21 0.12,1.21 "/>
    </g>
   </g>
  </g>
 </g>
</svg>
