<?xml version="1.0" encoding="UTF-8"?>
<!DOCTYPE svg PUBLIC "-//W3C//DTD SVG 1.1//EN" "http://www.w3.org/Graphics/SVG/1.1/DTD/svg11.dtd">
<!-- Creator: CorelDRAW -->
<svg xmlns="http://www.w3.org/2000/svg" xml:space="preserve" width="0.293244in" height="0.374886in" version="1.1" style="shape-rendering:geometricPrecision; text-rendering:geometricPrecision; image-rendering:optimizeQuality; fill-rule:evenodd; clip-rule:evenodd"
viewBox="0 0 0.85 1.08"
 xmlns:xlink="http://www.w3.org/1999/xlink"
 xmlns:xodm="http://www.corel.com/coreldraw/odm/2003">
 <defs>
  <style type="text/css">
   <![CDATA[
    .fil5 {fill:#084891}
    .fil4 {fill:#094F9F}
    .fil1 {fill:#0951A3}
    .fil3 {fill:#0C6AD4}
    .fil2 {fill:#0D71E3}
    .fil0 {fill:#519EF5}
   ]]>
  </style>
 </defs>
 <g id="Layer_x0020_1">
  <metadata id="CorelCorpID_0Corel-Layer"/>
  <g id="_2121921058240">
   <path class="fil0" d="M0.58 1.03c-0.01,-0.13 -0.05,-0.24 -0.12,-0.33 -0.04,-0.06 -0.09,-0.11 -0.14,-0.17 -0.16,-0.17 0.01,-0.34 0.19,-0.36 0.42,-0.03 0.43,0.63 0.07,0.86z"/>
   <path class="fil1" d="M0.57 1.04c-0.01,-0.13 -0.05,-0.24 -0.12,-0.33 -0.04,-0.06 -0.09,-0.11 -0.14,-0.17 -0.16,-0.17 0.01,-0.34 0.19,-0.36 0.42,-0.03 0.43,0.63 0.07,0.86z"/>
   <path class="fil2" d="M0.58 1.04c-0.01,-0.13 -0.05,-0.24 -0.12,-0.33 -0.04,-0.06 -0.09,-0.11 -0.14,-0.17 -0.16,-0.17 0.01,-0.34 0.19,-0.36 0.42,-0.03 0.43,0.62 0.07,0.85z"/>
   <path class="fil3" d="M0.79 0.79c-0.05,0.11 -0.12,0.19 -0.21,0.25 -0.01,-0.12 -0.04,-0.23 -0.12,-0.33 -0.05,-0.07 -0.1,-0.13 -0.14,-0.17 0.23,-0.01 0.38,0.07 0.47,0.24z"/>
   <path class="fil0" d="M0.6 0.22c0.12,0.03 0.2,0.14 0.19,0.25 -0.01,-0.13 -0.12,-0.23 -0.26,-0.23 -0.11,0 -0.2,0.06 -0.24,0.15 0,-0 0,-0 0,-0 0.03,-0.12 0.17,-0.2 0.31,-0.17z"/>
   <g>
    <g>
     <ellipse class="fil0" transform="matrix(0.0627988 0.0453179 -0.0403642 0.0705058 0.141675 0.270611)" rx="1.46" ry="0.98"/>
     <ellipse class="fil2" transform="matrix(0.0627988 0.0453179 -0.0403642 0.0705058 0.136193 0.276283)" rx="1.46" ry="0.98"/>
    </g>
    <g>
     <ellipse class="fil0" transform="matrix(0.0515132 0.0371738 -0.0331104 0.0578352 0.282782 0.139343)" rx="1.46" ry="0.98"/>
     <ellipse class="fil2" transform="matrix(0.0515132 0.0371738 -0.0331104 0.0578352 0.2773 0.145015)" rx="1.46" ry="0.98"/>
    </g>
    <g>
     <ellipse class="fil0" transform="matrix(0.0295707 0.0420541 -0.0406178 0.0354805 0.426921 0.0748756)" rx="1.46" ry="0.98"/>
     <ellipse class="fil2" transform="matrix(0.0295707 0.0420541 -0.0406178 0.0354805 0.421438 0.080548)" rx="1.46" ry="0.98"/>
    </g>
    <g>
     <ellipse class="fil0" transform="matrix(0.0185299 0.0421152 -0.0418972 0.0239688 0.56942 0.0657098)" rx="1.46" ry="0.98"/>
     <ellipse class="fil2" transform="matrix(0.0185299 0.0421152 -0.0418972 0.0239688 0.563937 0.0713822)" rx="1.46" ry="0.98"/>
    </g>
    <g>
     <circle class="fil0" cx="0.69" cy="0.12" r="0.05"/>
     <circle class="fil2" cx="0.68" cy="0.12" r="0.05"/>
    </g>
   </g>
   <g>
    <g>
     <ellipse class="fil3" transform="matrix(0.0194417 0.0430456 0.0470488 -0.0155433 0.212951 0.545437)" rx="1.46" ry="0.98"/>
     <ellipse class="fil4" transform="matrix(0.0194417 0.0430456 0.0470488 -0.0155433 0.217008 0.542851)" rx="1.46" ry="0.98"/>
    </g>
    <g>
     <ellipse class="fil3" transform="matrix(0.0159478 0.0353099 0.0385937 -0.01275 0.117329 0.613794)" rx="1.46" ry="0.98"/>
     <ellipse class="fil4" transform="matrix(0.0159478 0.0353099 0.0385937 -0.01275 0.121386 0.611208)" rx="1.46" ry="0.98"/>
    </g>
    <g>
     <ellipse class="fil3" transform="matrix(0.0215347 0.0227901 0.0261473 -0.0199571 0.0612607 0.692092)" rx="1.46" ry="0.98"/>
     <ellipse class="fil4" transform="matrix(0.0215347 0.0227901 0.0261473 -0.0199571 0.0653179 0.689505)" rx="1.46" ry="0.98"/>
    </g>
    <g>
     <ellipse class="fil3" transform="matrix(0.0229147 0.0161991 0.0194231 -0.0221226 0.0384422 0.776139)" rx="1.46" ry="0.98"/>
     <ellipse class="fil4" transform="matrix(0.0229147 0.0161991 0.0194231 -0.0221226 0.0424995 0.773553)" rx="1.46" ry="0.98"/>
    </g>
    <g>
     <circle class="fil3" transform="matrix(-0.00810495 0.0398047 0.0451003 0.00918323 0.053998 0.854126)" r="0.68"/>
     <circle class="fil4" transform="matrix(-0.00810495 0.0398047 0.0451003 0.00918323 0.0580553 0.85154)" r="0.68"/>
    </g>
   </g>
   <g>
    <path class="fil1" d="M0.57 1.04c-0.01,-0.12 -0.04,-0.23 -0.12,-0.33 -0.08,-0.04 -0.16,-0.12 -0.24,-0.06 -0.04,0.03 -0.08,0.08 -0.09,0.15 -0.03,0.18 0.14,0.29 0.3,0.29 0.05,0 0.1,-0.01 0.15,-0.04z"/>
    <path class="fil5" d="M0.36 0.66c0.03,0.02 0.05,0.03 0.05,0.03 0.04,0.15 0.03,0.28 -0.01,0.4 -0.08,-0.01 -0.14,-0.03 -0.19,-0.07 -0.06,-0.05 -0.08,-0.1 -0.09,-0.15 0.16,-0.14 0.24,-0.21 0.24,-0.21z"/>
    <path class="fil4" d="M0.28 0.63c0.03,0 0.06,0.01 0.11,0.04 -0.02,0.21 -0.1,0.3 -0.24,0.26 -0.03,-0.07 -0.03,-0.14 0,-0.2 0.04,-0.07 0.08,-0.1 0.13,-0.1z"/>
   </g>
  </g>
 </g>
</svg>
