<?xml version="1.0" encoding="UTF-8"?>
<!DOCTYPE svg PUBLIC "-//W3C//DTD SVG 1.1//EN" "http://www.w3.org/Graphics/SVG/1.1/DTD/svg11.dtd">
<!-- Creator: CorelDRAW -->
<svg xmlns="http://www.w3.org/2000/svg" xml:space="preserve" width="1.3042in" height="0.238024in" version="1.1" style="shape-rendering:geometricPrecision; text-rendering:geometricPrecision; image-rendering:optimizeQuality; fill-rule:evenodd; clip-rule:evenodd"
viewBox="0 0 15.36 2.8"
 xmlns:xlink="http://www.w3.org/1999/xlink"
 xmlns:xodm="http://www.corel.com/coreldraw/odm/2003">
 <defs>
  <style type="text/css">
   <![CDATA[
    .fil2 {fill:black}
    .fil0 {fill:#E62029}
    .fil1 {fill:#F2911F}
   ]]>
  </style>
 </defs>
 <g id="Layer_x0020_1">
  <metadata id="CorelCorpID_0Corel-Layer"/>
  <g id="_1179768682016">
   <path class="fil0" d="M9.52 0.51l0.28 0c0.16,0 -0.01,0.18 -0.04,0.23l-0.15 0.21c-0.12,0.17 -0.24,0.33 -0.35,0.51l-0.17 0.25c-0.01,0.02 -0.02,0.03 -0.03,0.04 -0.02,0.03 -0.05,0.06 -0.05,0.09 0,0.03 0.11,0.04 0.16,0.03 0.13,-0.02 0.48,0.02 0.57,-0.02 0.04,-0.02 0.07,-0.06 0.1,-0.1 0.01,-0.02 0.02,-0.04 0.04,-0.06l0.68 -0.99c0.04,-0.06 0.08,-0.12 0.12,-0.17 0.02,-0.02 0.04,-0.03 0.07,-0.03l0.41 0c0.03,0 0.04,0.02 0.04,0.05 0,0.04 -0.08,0.13 -0.1,0.17l-0.72 1.03c-0.14,0.18 0.06,0.14 0.3,0.14 0.04,0 0.05,0.01 0.08,0.01l0.33 -0c0.09,0 0.14,-0.06 0.18,-0.12l0.73 -1.09c0.04,-0.06 0.09,-0.13 0.09,-0.23 0,-0.13 -0.06,-0.24 -0.17,-0.29 -0.18,-0.09 -0.5,-0.06 -0.72,-0.06 -0.11,0 -0.2,-0.01 -0.3,-0.01l-0.62 0c-0.1,0 -0.2,-0.01 -0.3,-0.01 -0.2,0 -0.41,-0 -0.61,0 -0.05,0 -0.09,-0.01 -0.15,-0.01 -0.08,0 -0.23,-0.01 -0.31,0 -0.06,0.01 -0.07,0.02 -0.11,0.05 -0.05,0.05 -0.09,0.12 -0.13,0.18l-0.38 0.55c-0.04,0.06 -0.08,0.12 -0.12,0.18l-0.19 0.27c-0.01,0.02 -0.02,0.03 -0.03,0.05l-0.28 0.41c-0.07,0.1 -0.03,0.11 0.13,0.1l0.61 -0.01c0.05,-0 0.08,-0.02 0.11,-0.04 0.03,-0.02 0.05,-0.05 0.07,-0.08l0.77 -1.09c0.05,-0.07 0.09,-0.14 0.17,-0.14z"/>
   <path class="fil0" d="M0.54 0.98c0,0.12 0.25,0.15 0.34,0.15l1.98 -0c0.03,-0 0.08,0 0.11,0.02 0,0 0.02,0.02 0.02,0.02 0,0.05 -0.06,0.14 -0.09,0.18 -0.04,0.06 -0.1,0.14 -0.15,0.18 -0.04,0.03 -0.1,0.03 -0.17,0.03l-1.62 0c-0.1,0 -0.17,0.01 -0.27,0.01 -0.16,0 -0.4,-0.02 -0.5,0.04 -0.07,0.04 -0.17,0.17 -0.18,0.22 -0.02,0.09 0.21,0.05 0.34,0.06 0.07,0.01 0.19,0 0.27,0l1.89 0c0.29,0 0.59,0.04 0.83,-0.11 0.09,-0.06 0.15,-0.1 0.23,-0.18l0.07 -0.07c0.02,-0.02 0.05,-0.04 0.07,-0.07 0.1,-0.13 0.12,-0.14 0.23,-0.31 0.1,-0.15 0.15,-0.29 -0.06,-0.34 -0.03,-0.01 -0.07,-0.02 -0.12,-0.02 -0.15,0 -0.23,-0.02 -0.4,-0 -0.07,0.01 -0.19,0 -0.27,0l-1.39 0c-0.08,0 -0.13,-0.06 -0.07,-0.15 0.02,-0.03 0.03,-0.05 0.04,-0.07 0.15,-0.24 0.2,-0.23 0.46,-0.23 0.31,0 0.6,-0.01 0.91,-0.01l1.14 0c0.22,0 0.2,0.02 0.33,-0.14 0.24,-0.29 -0.1,-0.17 -0.32,-0.2 -0.11,-0.02 -0.32,-0 -0.45,-0 -0.16,0 -0.29,-0.01 -0.45,-0.01l-0.02 0 -0.54 0c-0.29,0 -0.59,0 -0.88,0.01 -0.2,0.01 -0.43,0.04 -0.61,0.14 -0.04,0.02 -0.08,0.05 -0.11,0.07 -0.06,0.04 -0.17,0.15 -0.22,0.2 -0.05,0.06 -0.09,0.1 -0.15,0.19l-0.15 0.23c-0.02,0.04 -0.05,0.09 -0.05,0.14z"/>
   <path class="fil0" d="M5.64 0.4c0.05,0.02 0.71,0.01 0.82,0.01 0.1,0 0.64,-0.01 0.73,0 0.02,0 0.03,0 0.04,0.01 0.07,0.05 -0.01,0.14 -0.04,0.18l-0.54 0.79c-0.09,0.14 -0.1,0.17 -0.28,0.17 -0.08,-0 -0.14,0.01 -0.22,0.01 -0.15,-0 -0.3,-0 -0.44,-0l-0.55 0.01c-0.04,0 -0.06,0.01 -0.11,0.01 -0.04,-0 -0.07,-0 -0.1,-0.01 -0.06,-0 -0.13,-0 -0.06,-0.09 0.03,-0.04 0.17,-0.19 0.05,-0.21 -0.03,-0.01 -0.06,0 -0.08,0 -0.05,0 -0.13,0 -0.18,0l-0.53 0.01c-0.05,0.01 -0.14,0.16 -0.17,0.2 -0.04,0.05 -0.05,0.09 -0.05,0.16 0,0.23 0.41,0.24 0.58,0.24l1.42 0.01c0.03,0 0.07,-0 0.1,-0 0.04,0 0.05,0.01 0.1,0.01 0.18,-0 0.67,0.01 0.81,-0.01 0.05,-0.01 0.12,-0.02 0.16,-0.04 0.01,-0 0.02,-0.01 0.04,-0.01 0.16,-0.07 0.28,-0.24 0.38,-0.39l0.68 -0.95c0.03,-0.04 0.06,-0.08 0.09,-0.12 0.03,-0.04 0.06,-0.08 0.09,-0.12 0.09,-0.13 0.18,-0.2 -0.27,-0.17 -0.11,0.01 -0.28,0 -0.39,0l-1.77 0.01c-0.12,0.02 -0.09,0.03 -0.17,0.13l-0.09 0.11c-0.02,0.03 -0.03,0.04 -0.02,0.07z"/>
   <path class="fil1" d="M10.53 2.67l4.52 0c0,-0.02 0.02,-0.03 0.03,-0.05l0.19 -0.23c0.02,-0.02 0.07,-0.07 0.07,-0.1l-4.82 0 0 0.38z"/>
   <path class="fil2" d="M15.16 1.79l-0.49 0c-0.04,0 -0.07,-0.02 -0.07,-0.05l0 -0.36c0,-0.03 0.03,-0.05 0.06,-0.05l0.49 0c0.04,0 0.07,0.02 0.07,0.06l0 0.35c0,0.03 -0.03,0.06 -0.06,0.06zm0.19 -0.37l0 0.3c-0.01,0.13 -0.06,0.18 -0.26,0.18l-0.36 0c-0.09,0 -0.19,-0.01 -0.24,-0.08 -0.01,-0.02 -0.02,-0.05 -0.02,-0.08l0 -0.38c0,-0.06 0.04,-0.11 0.09,-0.13 0.09,-0.04 0.4,-0.02 0.52,-0.02 0.18,0 0.28,0.03 0.28,0.21z"/>
   <path class="fil2" d="M12.64 1.23l0 0.45c0,0.13 0.03,0.2 0.15,0.22 0.09,0.01 0.4,0.01 0.5,0.01 0.19,0 0.22,-0.06 0.22,-0.22l0 -0.45c0,-0.03 -0.05,-0.02 -0.13,-0.02l0 0.52c0,0.03 -0.03,0.06 -0.06,0.06l-0.47 0c-0.04,0 -0.06,-0.03 -0.06,-0.07l0 -0.51c-0.08,0 -0.13,-0.01 -0.13,0.02z"/>
   <path class="fil2" d="M11.62 1.9c0.19,0 0.11,0.04 0.29,-0.23l0.21 -0.32c0.01,0.03 0.17,0.27 0.2,0.32 0.02,0.03 0.03,0.05 0.05,0.08 0.02,0.03 0.09,0.15 0.11,0.15 0.02,0 0.11,0 0.13,0 -0.01,-0.03 -0.3,-0.46 -0.34,-0.52 -0.02,-0.03 -0.04,-0.06 -0.06,-0.09 -0.06,-0.1 -0.03,-0.08 -0.13,-0.08 -0.02,0 -0.05,0.06 -0.06,0.08l-0.17 0.26c-0.04,0.06 -0.08,0.11 -0.12,0.18 -0.02,0.03 -0.11,0.15 -0.11,0.18z"/>
   <path class="fil2" d="M13.58 1.23c0,0.06 -0.01,0.09 0.02,0.09l0.34 0 0 0.57c0,0.03 0.05,0.02 0.13,0.02l0 -0.58 0.33 0c0.03,0 0.02,-0.03 0.02,-0.09 0,-0.01 -0,-0.02 -0.02,-0.02l-0.81 0c-0.01,0 -0.02,0 -0.02,0.02z"/>
   <polygon class="fil1" points="9.98,2.67 10.4,2.67 10.4,2.29 9.98,2.29 "/>
   <path class="fil1" d="M14.73 1.43l0 0.25c0,0.03 0.01,0.04 0.04,0.04l0.32 0c0.03,0 0.04,-0.01 0.04,-0.04l0 -0.25c0,-0.03 -0.01,-0.04 -0.04,-0.04l-0.32 0c-0.03,0 -0.04,0.01 -0.04,0.04z"/>
   <polygon class="fil1" points="9.59,2.67 9.9,2.67 9.9,2.29 9.59,2.29 "/>
   <path class="fil2" d="M6.8 2.3c0,0.05 0.01,0.09 0.06,0.11 0.08,0.05 0.19,0.03 0.21,0.09 0.01,0.04 -0.03,0.08 -0.07,0.08 -0.06,0 -0.08,0.01 -0.11,-0.05 -0.02,-0.03 -0.02,-0.05 -0.06,-0.06 -0.06,0.03 -0.05,0.08 -0.01,0.12 0.08,0.1 0.35,0.09 0.35,-0.09 0,-0.17 -0.28,-0.12 -0.28,-0.21 0,-0.04 0.05,-0.05 0.09,-0.05 0.1,0 0.07,0.09 0.13,0.09 0.02,0 0.04,-0.03 0.04,-0.04 0.01,-0.07 -0.08,-0.11 -0.14,-0.12 -0.09,-0.02 -0.21,0.03 -0.21,0.12z"/>
   <path class="fil2" d="M5.31 2.29c0.01,0.01 0.01,0.02 0.02,0.04 0.01,0.04 0.05,0.11 0.05,0.14l-0.13 0c0,-0.03 0.05,-0.14 0.06,-0.18zm-0.17 0.38c0.07,0 0.05,-0.12 0.09,-0.12l0.16 0c0.04,0 0.03,0.12 0.09,0.12 0.1,0 0.02,-0.14 0,-0.18 -0.02,-0.04 -0.03,-0.08 -0.05,-0.13 -0.01,-0.02 -0.02,-0.04 -0.03,-0.06 -0.01,-0.02 -0.02,-0.04 -0.03,-0.07 -0.02,-0.04 -0.06,-0.08 -0.11,-0.05 -0.03,0.02 -0.05,0.08 -0.06,0.12 -0.01,0.04 -0.12,0.3 -0.12,0.32 0,0.02 0.03,0.04 0.05,0.04z"/>
   <path class="fil2" d="M3.77 2.43c0,0.05 0.02,0.13 0.06,0.17 0.02,0.02 0.03,0.04 0.06,0.05 0.08,0.04 0.21,0.03 0.27,-0.05 0.06,-0.07 0.05,-0.13 -0,-0.13 -0.05,0 -0.05,0.04 -0.06,0.07 -0.04,0.07 -0.22,0.1 -0.22,-0.12 0,-0.08 0.04,-0.16 0.12,-0.16 0.12,0 0.1,0.11 0.16,0.11 0.07,0 0.05,-0.11 -0.04,-0.16 -0.05,-0.03 -0.1,-0.04 -0.17,-0.02 -0.11,0.03 -0.17,0.13 -0.17,0.24z"/>
   <polygon class="fil1" points="9.24,2.67 9.5,2.67 9.5,2.29 9.24,2.29 "/>
   <path class="fil2" d="M0.19 2.4l-0.09 0 0 -0.14c0.09,0 0.16,-0.01 0.16,0.08 0,0.04 -0.03,0.06 -0.07,0.06zm-0.19 0.22l0 -0.4c0,-0.07 0.25,-0.05 0.31,-0.01 0.03,0.02 0.06,0.07 0.06,0.12 0,0.16 -0.17,0.15 -0.27,0.15l0 0.13c0,0.09 -0.1,0.07 -0.1,0.01z"/>
   <path class="fil2" d="M3.19 2.6c-0.04,0 -0.07,0.01 -0.07,-0.05 0,-0.03 0.04,-0.03 0.06,-0.04 0.03,-0.01 0.06,-0.01 0.08,-0.02 0,0.02 -0,0.06 -0.01,0.08 -0.01,0.02 -0.04,0.03 -0.06,0.03zm-0.14 -0.17c0.11,0.03 0.02,-0.06 0.16,-0.06 0.05,0 0.05,0.04 0.05,0.07 -0.02,0 -0.18,0.03 -0.21,0.06 -0.04,0.04 -0.05,0.17 0.1,0.17 0.05,0 0.08,-0.03 0.12,-0.05 0.07,0.1 0.1,0.01 0.1,0.01 0,-0.03 -0.01,-0.04 -0.01,-0.08 0,-0.03 0,-0.07 0,-0.1 -0,-0.06 -0.02,-0.11 -0.07,-0.13 -0.05,-0.02 -0.12,-0.02 -0.17,0 -0.05,0.02 -0.09,0.06 -0.06,0.11z"/>
   <path class="fil2" d="M4.42 2.6c-0.02,0 -0.07,0.01 -0.07,-0.04 0,-0.05 0.11,-0.05 0.15,-0.07 0,0.05 -0.01,0.11 -0.07,0.11zm-0.15 -0.21c0,0.03 0.01,0.04 0.04,0.04 0.04,0 0.02,-0.07 0.12,-0.07 0.05,0 0.06,0.02 0.06,0.07l-0.14 0.03c-0.17,0.04 -0.08,0.27 0.1,0.18 0.02,-0.01 0.03,-0.02 0.05,-0.03 0,0.02 0.01,0.02 0.02,0.03 0.04,0.04 0.07,0 0.07,-0.01 0,-0.04 -0.01,-0.04 -0.01,-0.08 -0,-0.03 0,-0.06 0,-0.09 0,-0.14 -0.06,-0.18 -0.21,-0.16 -0.04,0.01 -0.1,0.04 -0.1,0.08z"/>
   <path class="fil2" d="M1.47 2.37c0.04,0 0.07,0.04 0.07,0.09l-0.15 0c0,-0.05 0.03,-0.09 0.08,-0.09zm-0.18 0.11c0,0.27 0.33,0.2 0.33,0.1 0,-0.01 -0,-0.01 -0.01,-0.02 -0.09,-0.02 -0.03,0.05 -0.16,0.05 -0.05,0 -0.07,-0.04 -0.07,-0.09l0.18 0c0.14,0 0.05,-0.22 -0.11,-0.21 -0.1,0.01 -0.17,0.07 -0.17,0.17z"/>
   <path class="fil2" d="M8.18 2.37c0.04,0 0.07,0.04 0.07,0.09l-0.15 0c0,-0.05 0.03,-0.09 0.08,-0.09zm-0.18 0.11c0,0.27 0.33,0.2 0.33,0.1 0,-0.01 -0,-0.01 -0.01,-0.02 -0.09,-0.02 -0.03,0.05 -0.16,0.05 -0.05,0 -0.07,-0.04 -0.07,-0.09l0.18 0c0.14,0 0.05,-0.22 -0.11,-0.21 -0.1,0.01 -0.17,0.07 -0.17,0.17z"/>
   <path class="fil2" d="M7.44 2.75c0,0.05 0.04,0.05 0.09,0.05 0.05,0 0.08,-0.03 0.1,-0.07l0.05 -0.13c0.02,-0.05 0.09,-0.22 0.09,-0.27 0,-0.02 -0.05,-0.08 -0.08,0.01l-0.07 0.22c-0,-0 -0,-0 -0,-0l-0.07 -0.2c-0.01,-0.03 -0.03,-0.08 -0.07,-0.05 -0.04,0.02 -0.02,0.06 -0,0.1l0.1 0.25c-0,0.01 -0.02,0.04 -0.02,0.05 -0.02,0.02 -0.02,0.02 -0.06,0.02 -0.02,0 -0.05,0 -0.05,0.02z"/>
   <path class="fil2" d="M6.31 2.51c0,-0.04 -0.01,-0.13 0.08,-0.13 0.12,0 0.1,0.22 0.02,0.22 -0.04,0 -0.1,-0.01 -0.1,-0.09zm-0.1 -0.02c0,0.25 0.36,0.24 0.36,0 0,-0.24 -0.36,-0.24 -0.36,0z"/>
   <path class="fil2" d="M2.32 2.49c0,-0.16 0.17,-0.16 0.17,0 0,0.14 -0.17,0.14 -0.17,0zm-0.09 -0.02c0,0.04 -0,0.06 0.02,0.1 0.06,0.13 0.34,0.15 0.34,-0.1 0,-0.05 -0.02,-0.1 -0.05,-0.12 -0.11,-0.1 -0.3,-0.04 -0.3,0.12z"/>
   <path class="fil2" d="M0.87 2.6c-0.09,0 -0.1,-0.04 -0.1,-0.13 0,-0.12 0.17,-0.13 0.17,0.02 0,0.05 -0.03,0.11 -0.07,0.11zm-0.02 0.07c0.24,0 0.23,-0.3 0.08,-0.35 -0.29,-0.1 -0.34,0.35 -0.08,0.35z"/>
   <path class="fil2" d="M2.64 2.38l0 0.21c0,0.04 0.01,0.08 0.05,0.08 0.12,0 -0.03,-0.29 0.13,-0.29 0.06,0 0.05,0.08 0.05,0.14 -0,0.06 -0.02,0.15 0.04,0.15 0.04,0 0.05,-0.02 0.05,-0.06 0,-0.14 0.03,-0.27 -0.09,-0.3 -0.03,-0.01 -0.06,-0.01 -0.08,0 -0.03,0.01 -0.04,0.03 -0.06,0.04 -0.01,-0.07 -0.09,-0.08 -0.09,0.02z"/>
   <path class="fil2" d="M5.6 2.35c0,0.16 -0.03,0.32 0.12,0.32 0.07,0 0.08,-0.03 0.12,-0.05 0,0.08 0.09,0.06 0.09,0.02l0 -0.28c0,-0.04 -0.03,-0.06 -0.06,-0.04 -0.03,0.02 -0.03,0.05 -0.03,0.1 0,0.09 0.02,0.18 -0.09,0.18 -0.1,0 -0.01,-0.24 -0.08,-0.28 -0.03,-0.02 -0.06,0 -0.06,0.04z"/>
   <path class="fil2" d="M1.69 2.41c0,0.09 0.1,0.1 0.16,0.12 0.08,0.02 0.05,0.08 0.01,0.08 -0.14,0 -0.07,-0.07 -0.14,-0.07 -0.02,0 -0.03,0.02 -0.03,0.04 -0,0.05 0.07,0.1 0.14,0.1 0.08,0 0.17,-0.02 0.17,-0.11 0,-0.09 -0.09,-0.1 -0.16,-0.12 -0.03,-0.01 -0.09,-0.03 -0.04,-0.06 0.02,-0.01 0.03,-0.01 0.04,-0.01 0.06,0 0.06,0.06 0.1,0.06 0.08,0 0.04,-0.13 -0.1,-0.13 -0.07,0 -0.14,0.04 -0.14,0.1z"/>
   <polygon class="fil1" points="9,2.67 9.16,2.67 9.16,2.29 9,2.29 "/>
   <path class="fil2" d="M1.11 2.29l0 0.02c-0.04,0 -0.05,0.01 -0.07,0.04 0.02,0.04 0.02,0.04 0.07,0.04l0 0.22c0,0.09 0.09,0.06 0.09,0.02l0 -0.24c0.05,0 0.04,-0 0.07,-0.01 0.01,-0.04 0.02,-0.07 -0.07,-0.07 0,-0.09 0.04,-0.06 0.09,-0.06 0.01,-0.02 0.02,-0.01 0.02,-0.04 0,-0.04 -0.09,-0.04 -0.13,-0.03 -0.05,0.01 -0.07,0.05 -0.07,0.11z"/>
   <path class="fil2" d="M7.26 2.32c-0.07,0.01 -0.07,0.07 0,0.07 0,0.19 -0.03,0.28 0.11,0.28 0.05,0 0.07,-0.01 0.09,-0.04 -0.02,-0.03 -0.02,-0.03 -0.05,-0.03 -0.07,0.01 -0.05,-0.02 -0.05,-0.21 0.11,0 0.09,-0.07 0,-0.07l0 -0.08c0,-0.04 -0.04,-0.06 -0.07,-0.04 -0.03,0.02 -0.02,0.07 -0.02,0.11z"/>
   <path class="fil2" d="M6.02 2.32c-0.07,0.01 -0.08,0.07 0,0.07l0 0.19c0,0.12 0.19,0.1 0.19,0.04 0,-0.04 -0.06,-0.02 -0.09,-0.02 -0.01,-0.06 -0.01,-0.15 -0.01,-0.21 0.04,0 0.07,0 0.07,-0.04 0,-0.03 -0.04,-0.03 -0.07,-0.03 0,-0.03 0.01,-0.15 -0.07,-0.12 -0.04,0.02 -0.02,0.07 -0.02,0.12z"/>
   <path class="fil2" d="M0.43 2.38l0 0.22c0,0.08 0.08,0.09 0.1,0.02 0.01,-0.03 0,-0.06 0,-0.1 -0,-0.18 0.05,-0.13 0.11,-0.13 0.05,0 0.07,-0.08 -0.03,-0.09 -0.01,-0 -0.04,0 -0.05,0.01 -0.01,0 -0.01,0.01 -0.02,0.01l-0.02 0.02c-0.01,-0.03 -0.02,-0.06 -0.06,-0.04 -0.03,0.01 -0.04,0.04 -0.04,0.07z"/>
   <path class="fil2" d="M8.41 2.41c0,0.09 -0.02,0.26 0.05,0.26 0.11,0 -0.01,-0.29 0.1,-0.29 0.04,0 0.1,0.04 0.1,-0.03 0,-0.03 -0.07,-0.07 -0.12,-0.03 -0.02,0.02 -0.01,0.02 -0.03,0.03 -0,-0.06 -0.09,-0.09 -0.09,0.06z"/>
   <path class="fil2" d="M7.84 2.23l0 0.38c0,0.09 0.09,0.06 0.09,0.02l0 -0.41c0,-0.07 -0.09,-0.06 -0.09,0.01z"/>
   <path class="fil2" d="M3.44 2.23l0 0.4c0,0.06 0.09,0.07 0.09,-0.01l0 -0.38c0,-0.06 -0.09,-0.07 -0.09,-0.01z"/>
   <path class="fil2" d="M4.67 2.37l0 0.26c0,0.03 0.02,0.05 0.04,0.05 0.06,0 0.05,-0.08 0.05,-0.15 -0,-0.2 0.08,-0.13 0.12,-0.13 0.05,0 0.04,-0.09 -0.05,-0.09 -0.04,-0 -0.05,0.03 -0.08,0.05 -0,-0.04 -0.02,-0.05 -0.05,-0.05 -0.03,0 -0.04,0.03 -0.04,0.06z"/>
   <path class="fil2" d="M2.07 2.35l0 0.27c0,0.06 0.09,0.07 0.09,-0.01l0 -0.25c0,-0.06 -0.09,-0.07 -0.09,-0.01z"/>
   <path class="fil2" d="M2.07 2.21c0,0.09 0.09,0.06 0.09,0.01 0,-0.06 -0.09,-0.05 -0.09,-0.01z"/>
  </g>
 </g>
</svg>
