<?xml version="1.0" encoding="UTF-8"?>
<!DOCTYPE svg PUBLIC "-//W3C//DTD SVG 1.1//EN" "http://www.w3.org/Graphics/SVG/1.1/DTD/svg11.dtd">
<!-- Creator: CorelDRAW -->
<svg xmlns="http://www.w3.org/2000/svg" xml:space="preserve" width="3.38844in" height="0.624772in" version="1.1" style="shape-rendering:geometricPrecision; text-rendering:geometricPrecision; image-rendering:optimizeQuality; fill-rule:evenodd; clip-rule:evenodd"
viewBox="0 0 318.67 58.76"
 xmlns:xlink="http://www.w3.org/1999/xlink"
 xmlns:xodm="http://www.corel.com/coreldraw/odm/2003">
 <defs>
  <style type="text/css">
   <![CDATA[
    .fil2 {fill:#E62029}
    .fil0 {fill:#F2911F}
    .fil1 {fill:#FDFDFD}
   ]]>
  </style>
      <clipPath id="id0">
       <path d="M198.47 10.85l5.8 0c3.33,0 -0.15,3.82 -0.83,4.84l-3.05 4.39c-2.39,3.53 -4.93,6.94 -7.29,10.5l-3.61 5.23c-0.24,0.35 -0.4,0.53 -0.63,0.88 -0.35,0.53 -1.11,1.29 -1.11,1.92 0,0.72 2.35,0.84 3.23,0.7 2.73,-0.42 9.9,0.38 11.79,-0.45 0.9,-0.4 1.47,-1.24 2.01,-2.02 0.28,-0.4 0.51,-0.77 0.81,-1.21l14.18 -20.64c0.79,-1.19 1.57,-2.47 2.53,-3.53 0.31,-0.35 0.91,-0.61 1.54,-0.61l8.45 0c0.56,0 0.76,0.52 0.76,1.01 0,0.83 -1.59,2.73 -2.09,3.46l-14.92 21.29c-2.81,3.79 1.21,2.82 6.17,2.88 0.73,0.01 0.95,0.14 1.76,0.13l6.94 -0c1.92,0 2.84,-1.18 3.76,-2.55l15.19 -22.66c0.88,-1.32 1.87,-2.62 1.87,-4.69 0,-7.92 -11.88,-9.67 -17.81,-9.67 -2.22,0 -4.26,0.02 -6.4,0.02l-12.87 0c-2.17,0 -4.04,0 -6.3,0 -5.33,0 -10.66,-0.03 -15.99,-0.03 -4.92,0 -8.86,3.17 -11.36,6.95l-7.9 11.4c-0.87,1.29 -1.7,2.43 -2.57,3.74l-3.91 5.68c-0.26,0.37 -0.45,0.6 -0.68,0.96l-5.88 8.5c-1.42,2.03 -0.72,2.28 2.73,2.1l12.62 -0.25c1,-0.02 1.74,-0.36 2.3,-0.86 0.57,-0.51 0.96,-1.1 1.41,-1.75l15.95 -22.66c1.05,-1.53 1.79,-3 3.43,-3zm-80.49 -2.27c1.03,0.49 14.76,0.25 17.03,0.25 2.15,0 13.3,-0.13 15.14,0 0.38,0.03 0.6,0.09 0.85,0.28 1.41,1.06 -0.2,2.83 -0.85,3.75l-11.3 16.32c-1.86,2.81 -2.05,3.48 -5.73,3.48 -9.79,-0.01 -19.62,-0.03 -29.41,-0 -1.19,-0.06 -2.75,0.25 -1.28,-1.68 0.68,-0.89 3.53,-3.93 1.13,-4.46 -0.7,-0.1 -1.25,-0.12 -1.78,-0.08 -4.78,0.01 -9.77,0 -14.53,-0.01 -1.08,0.15 -3.16,3.73 -3.73,4.56 -0.73,1.08 -0.98,1.9 -0.98,3.31 0,4.83 8.58,4.92 11.98,4.92l29.39 0.13c0.71,0 1.44,-0.01 2.15,-0.01 0.75,0.01 1.13,0.14 2.01,0.13 3.68,-0.02 13.92,0.16 16.76,-0.15 1.09,-0.12 2.4,-0.51 3.3,-0.86 0.24,-0.09 0.48,-0.16 0.73,-0.28 3.4,-1.51 5.77,-5.07 7.82,-8.08l14.05 -19.76c0.62,-0.84 1.18,-1.65 1.77,-2.52 0.59,-0.87 1.19,-1.62 1.79,-2.5 1.91,-2.77 3.08,-5.32 -5.07,-5.26 -2.68,-0.05 -5.71,0.01 -8.19,0.01l-35.9 -0.1c-2.35,0.32 -5.46,5.11 -6.74,7.1 -0.39,0.53 -0.57,0.8 -0.41,1.48zm-105.72 11.98c0,2.58 5.16,3.16 7.06,3.15l41 -0c0.7,-0 1.72,0.02 2.24,0.41 0.09,0.07 0.41,0.38 0.41,0.47 0,1.11 -1.33,2.94 -1.87,3.68 -0.87,1.17 -2.05,2.88 -3.19,3.75 -0.89,0.68 -2.17,0.65 -3.52,0.64l-33.68 0c-2.01,0 -3.56,0.13 -5.55,0.13 -3.33,0 -8.29,-0.32 -10.34,0.89 -1.47,0.86 -3.48,3.55 -3.72,4.62 -0.43,1.87 4.31,0.99 7.02,1.29 1.51,0.17 4.04,0.02 5.66,0.02l39.23 0c5.93,0 12.28,0.87 17.13,-2.29 1.8,-1.18 3.19,-2.06 4.79,-3.67l1.39 -1.39c0.46,-0.46 0.98,-0.9 1.37,-1.41 2.03,-2.62 2.57,-2.9 4.87,-6.36 2.09,-3.13 3.06,-5.92 -1.26,-7.12 -0.72,-0.2 -1.42,-0.36 -2.42,-0.35 -3.14,0.01 -4.78,-0.42 -8.35,-0.02 -1.51,0.17 -4.04,0.02 -5.66,0.02l-28.76 0c-1.6,0 -2.7,-1.16 -1.44,-3.21 0.34,-0.55 0.58,-0.95 0.91,-1.48 3.1,-4.97 4.13,-4.77 9.61,-4.77 6.45,0 12.49,-0.13 18.92,-0.13l23.72 0c4.56,0 4.1,0.47 6.77,-2.81 4.46,-5.38 -0.48,-4.28 -6.75,-4.43 -0.08,-0.01 -6.67,-0.01 -9.35,-0.01 -3.26,0 -6.09,0 -9.34,0l-11.69 0c-6.1,0.01 -12.2,0.13 -18.35,0.31 -4.24,0.13 -8.99,0.8 -12.64,3.01 -0.85,0.51 -1.61,0.98 -2.37,1.54 -1.27,0.92 -3.62,3.05 -4.52,4.18 -0.98,1.23 -1.88,2 -3.1,3.84l-3.13 4.69c-0.5,0.8 -1.11,1.85 -1.11,2.8z"/>
      </clipPath>
 </defs>
 <g id="Layer_x0020_1">
  <metadata id="CorelCorpID_0Corel-Layer"/>
  <g id="_2012945838176">
   <path class="fil0" d="M218.5 55.98l93.86 0c0.1,-0.36 0.42,-0.67 0.67,-0.97l3.87 -4.83c0.33,-0.42 1.38,-1.52 1.51,-2.02l-99.91 0 0 7.82z"/>
   <path class="fil1" d="M314.63 37.81l-10.22 0c-0.79,0 -1.39,-0.36 -1.39,-1.14l0 -7.57c0,-0.68 0.62,-1.14 1.26,-1.14l10.09 0c0.87,0 1.51,0.4 1.51,1.26l0 7.32c0,0.71 -0.55,1.26 -1.26,1.26zm4.04 -7.72l0 6.21c-0.24,2.66 -1.32,3.78 -5.42,3.78l-7.57 0c-1.78,0 -4.04,-0.2 -4.92,-1.64 -0.19,-0.31 -0.5,-1.13 -0.5,-1.64l0 -7.82c0,-1.22 0.78,-2.28 1.91,-2.76 1.83,-0.78 8.32,-0.52 10.71,-0.52 3.8,0 5.79,0.55 5.8,4.39z"/>
   <path class="fil1" d="M262.27 26.08l0 9.34c0,2.63 0.66,4.08 3.08,4.49 1.76,0.31 8.22,0.18 10.3,0.18 3.85,0 4.54,-1.16 4.54,-4.67l0 -9.34c0,-0.63 -1.07,-0.38 -2.77,-0.38l0 10.85c0,0.71 -0.55,1.26 -1.26,1.26l-9.84 0c-0.86,0 -1.26,-0.64 -1.26,-1.51l0 -10.6c-1.7,0 -2.78,-0.25 -2.78,0.38z"/>
   <path class="fil1" d="M241.08 40.08c3.85,0 2.24,0.93 6.11,-4.87l4.37 -6.61c0.14,0.54 3.55,5.65 4.19,6.66 0.36,0.58 0.68,1.04 1.03,1.62 0.32,0.55 1.83,3.05 2.26,3.17 0.33,0.09 2.25,0.03 2.75,0.03 -0.14,-0.6 -6.18,-9.58 -7.04,-10.87 -0.43,-0.64 -0.78,-1.16 -1.21,-1.82 -1.34,-2.02 -0.72,-1.69 -2.72,-1.69 -0.45,0 -1.07,1.17 -1.34,1.56l-3.61 5.47c-0.83,1.24 -1.58,2.38 -2.42,3.63 -0.44,0.66 -2.22,3.15 -2.35,3.71z"/>
   <path class="fil1" d="M281.7 26.08c0,1.3 -0.18,1.89 0.38,1.89l7.06 0 0 11.73c0,0.63 1.07,0.38 2.78,0.38l0 -12.11 6.94 0c0.56,0 0.38,-0.59 0.38,-1.89 0,-0.29 -0.09,-0.38 -0.38,-0.38l-16.78 0c-0.29,0 -0.38,0.09 -0.38,0.38z"/>
   <polygon class="fil0" points="207.14,55.98 215.72,55.98 215.72,48.16 207.14,48.16 "/>
   <path class="fil0" d="M305.55 30.24l0 5.17c0,0.59 0.29,0.88 0.88,0.88l6.69 0c0.59,0 0.88,-0.29 0.88,-0.88l0 -5.17c0,-0.59 -0.29,-0.88 -0.88,-0.88l-6.69 0c-0.59,0 -0.88,0.29 -0.88,0.88z"/>
   <polygon class="fil0" points="198.94,55.98 205.38,55.98 205.38,48.16 198.94,48.16 "/>
   <path class="fil1" d="M141.17 48.41c0,1.07 0.29,1.79 1.22,2.32 1.67,0.96 3.96,0.65 4.37,1.95 0.26,0.82 -0.6,1.66 -1.42,1.66 -1.18,0 -1.73,0.17 -2.36,-1.05 -0.34,-0.66 -0.38,-1.04 -1.18,-1.22 -1.26,0.67 -0.97,1.56 -0.19,2.58 1.66,2.17 7.25,1.85 7.25,-1.95 0,-3.46 -5.8,-2.51 -5.8,-4.29 0,-0.86 0.94,-1.13 1.77,-1.13 2.03,0 1.41,1.89 2.78,1.89 0.37,0 0.78,-0.52 0.81,-0.9 0.11,-1.4 -1.57,-2.19 -2.81,-2.4 -1.95,-0.34 -4.44,0.57 -4.44,2.54z"/>
   <path class="fil1" d="M110.26 48.03c0.26,0.3 0.25,0.46 0.4,0.86 0.26,0.73 0.94,2.33 0.99,2.92l-2.65 0c0.06,-0.7 1.04,-2.84 1.26,-3.78zm-3.53 7.95c1.37,0 1.13,-2.52 1.89,-2.52l3.41 0c0.77,0 0.68,2.52 1.89,2.52 2.06,0 0.36,-2.95 0.02,-3.8 -0.36,-0.89 -0.7,-1.67 -1.06,-2.59 -0.2,-0.5 -0.32,-0.74 -0.52,-1.24 -0.2,-0.5 -0.33,-0.87 -0.54,-1.36 -0.36,-0.83 -1.28,-1.64 -2.28,-0.94 -0.62,0.44 -0.94,1.61 -1.26,2.4 -0.3,0.76 -2.55,6.27 -2.52,6.64 0.03,0.37 0.53,0.89 0.97,0.89z"/>
   <path class="fil1" d="M78.22 50.93c0,1.1 0.45,2.77 1.23,3.57 0.48,0.49 0.67,0.75 1.33,1.06 1.61,0.75 4.32,0.56 5.53,-0.95 1.15,-1.43 0.96,-2.8 -0.02,-2.8 -0.96,0 -0.94,0.8 -1.3,1.48 -0.75,1.43 -4.63,2.17 -4.63,-2.49 0,-1.73 0.84,-3.41 2.52,-3.41 2.55,0 2.01,2.27 3.28,2.27 1.47,0 1.11,-2.23 -0.88,-3.28 -1.05,-0.56 -2.04,-0.74 -3.46,-0.43 -2.37,0.52 -3.6,2.74 -3.6,4.97z"/>
   <polygon class="fil0" points="191.75,55.98 197.05,55.98 197.05,48.16 191.75,48.16 "/>
   <path class="fil1" d="M3.91 50.43l-1.89 0 0 -2.9c1.97,0 3.41,-0.26 3.41,1.64 0,0.83 -0.67,1.26 -1.51,1.26zm-3.91 -3.66l0 8.2c0,1.26 2.02,1.58 2.02,-0.25l0 -2.65c2.03,0 5.55,0.33 5.55,-3.03 0,-1.12 -0.46,-2.05 -1.15,-2.51 -1.2,-0.78 -6.42,-1.15 -6.42,0.23z"/>
   <path class="fil1" d="M66.23 54.59c-0.91,0 -1.51,0.11 -1.51,-1.01 0,-0.6 0.74,-0.71 1.31,-0.84 0.65,-0.14 1.16,-0.3 1.72,-0.43 0,0.52 -0.09,1.26 -0.3,1.6 -0.19,0.32 -0.75,0.67 -1.22,0.67zm-2.9 -3.53c2.27,0.53 0.33,-1.26 3.28,-1.26 1.01,0 1.01,0.87 1.13,1.39 -0.31,0.01 -3.78,0.7 -4.38,1.3 -0.86,0.86 -1.06,3.5 2.11,3.5 1.03,0 1.71,-0.65 2.4,-1.01 1.44,2.15 2.02,0.28 2.02,0.25 0,-0.71 -0.26,-0.78 -0.26,-1.76 0,-0.67 0.03,-1.37 0.01,-2.03 -0.04,-1.33 -0.38,-2.35 -1.44,-2.72 -1.07,-0.37 -2.49,-0.35 -3.54,0.02 -1.06,0.37 -1.88,1.19 -1.33,2.32z"/>
   <path class="fil1" d="M91.71 54.59c-0.38,0 -1.51,0.13 -1.51,-0.88 0,-1.07 2.19,-0.98 3.03,-1.39 0,1.06 -0.23,2.27 -1.51,2.27zm-3.03 -4.29c0,0.66 0.23,0.88 0.88,0.88 0.85,0 0.32,-1.39 2.4,-1.39 0.99,0 1.24,0.43 1.26,1.39l-3 0.66c-3.63,0.83 -1.69,5.53 2.12,3.76 0.42,-0.2 0.66,-0.51 1.13,-0.63 0.1,0.38 0.12,0.34 0.4,0.61 0.92,0.92 1.49,0.02 1.49,-0.23 0,-0.76 -0.22,-0.93 -0.25,-1.64 -0.03,-0.59 -0,-1.29 0,-1.9 0.02,-2.85 -1.18,-3.75 -4.27,-3.26 -0.87,0.14 -2.16,0.77 -2.16,1.75z"/>
   <path class="fil1" d="M30.53 49.8c0.92,0 1.49,0.81 1.51,1.77l-3.15 0c0,-1.06 0.58,-1.77 1.64,-1.77zm-3.66 2.27c0,5.63 6.94,4.15 6.94,2.02 0,-0.29 -0.04,-0.15 -0.13,-0.5 -1.9,-0.44 -0.62,1.01 -3.41,1.01 -0.95,0 -1.39,-0.8 -1.39,-1.77l3.66 0c2.85,0 1.05,-4.65 -2.24,-4.38 -2.06,0.16 -3.44,1.55 -3.44,3.63z"/>
   <path class="fil1" d="M169.68 49.8c0.92,0 1.49,0.81 1.51,1.77l-3.15 0c0,-1.06 0.58,-1.77 1.64,-1.77zm-3.66 2.27c0,5.63 6.94,4.15 6.94,2.02 0,-0.29 -0.04,-0.15 -0.13,-0.5 -1.9,-0.44 -0.63,1.01 -3.41,1.01 -0.95,0 -1.39,-0.8 -1.39,-1.77l3.66 0c2.85,0 1.05,-4.65 -2.24,-4.38 -2.06,0.16 -3.44,1.55 -3.44,3.63z"/>
   <path class="fil1" d="M154.41 57.75c0,1.08 0.9,1.01 1.89,1.01 1.11,0 1.72,-0.65 2.1,-1.43l1.03 -2.63c0.41,-1.11 1.91,-4.64 1.91,-5.53 0,-0.4 -1.08,-1.56 -1.75,0.27l-1.53 4.53c-0.02,-0.03 -0.04,-0.1 -0.05,-0.08l-1.45 -4.23c-0.24,-0.67 -0.58,-1.57 -1.47,-1.07 -0.89,0.49 -0.39,1.28 -0.09,2.01l2.01 5.24c-0.01,0.12 -0.31,0.9 -0.43,1.06 -0.31,0.43 -0.51,0.34 -1.17,0.34 -0.5,0 -1.01,0.02 -1.01,0.51z"/>
   <path class="fil1" d="M130.95 52.7c0,-0.93 -0.11,-2.78 1.64,-2.78 2.57,0 2.15,4.54 0.38,4.54 -0.93,0 -2.02,-0.12 -2.02,-1.77zm-2.02 -0.5c0,5.11 7.44,5.02 7.44,0 0,-4.96 -7.44,-4.96 -7.44,0z"/>
   <path class="fil1" d="M48.06 52.32c0,-3.23 3.53,-3.23 3.53,0 0,2.91 -3.53,2.91 -3.53,0zm-1.89 -0.38c0,0.92 -0.05,1.15 0.34,2.06 1.18,2.77 6.98,3.14 6.98,-2.06 0,-0.99 -0.51,-2 -1.04,-2.5 -2.22,-2.08 -6.28,-0.81 -6.28,2.5z"/>
   <path class="fil1" d="M18.04 54.47c-1.8,0 -2.02,-0.77 -2.02,-2.65 0,-2.44 3.53,-2.76 3.53,0.38 0,1.03 -0.52,2.27 -1.51,2.27zm-0.5 1.51c4.97,0 4.85,-6.16 1.69,-7.25 -6.03,-2.08 -6.99,7.25 -1.69,7.25z"/>
   <path class="fil1" d="M54.75 50.05l0 4.29c0,0.82 0.23,1.64 1.01,1.64 2.47,0 -0.7,-6.06 2.65,-6.06 1.26,0 1.14,1.61 1.13,2.9 -0,1.21 -0.32,3.15 0.88,3.15 0.75,0 1.01,-0.51 1.01,-1.26 0,-2.9 0.54,-5.6 -1.79,-6.16 -0.66,-0.16 -1.18,-0.13 -1.76,0.08 -0.57,0.21 -0.8,0.61 -1.24,0.9 -0.12,-1.39 -1.89,-1.72 -1.89,0.5z"/>
   <path class="fil1" d="M116.19 49.42c0,3.33 -0.67,6.56 2.4,6.56 1.55,0 1.58,-0.59 2.4,-1.14 0.04,1.72 1.77,1.22 1.77,0.38l0 -5.8c0,-0.77 -0.68,-1.19 -1.33,-0.84 -0.71,0.39 -0.57,1.1 -0.56,2.1 0,1.91 0.41,3.78 -1.77,3.78 -2.1,0 -0.11,-5.08 -1.57,-5.88 -0.65,-0.35 -1.33,0.07 -1.33,0.84z"/>
   <path class="fil1" d="M35.07 50.56c0,1.77 2.08,2.03 3.38,2.42 1.65,0.5 1.11,1.62 0.15,1.62 -2.83,0 -1.41,-1.39 -2.9,-1.39 -0.37,0 -0.7,0.49 -0.72,0.77 -0.09,1.03 1.44,2.01 2.87,2.01 1.59,0 3.53,-0.42 3.53,-2.27 0,-1.86 -1.91,-2.03 -3.38,-2.42 -0.58,-0.15 -1.78,-0.63 -0.83,-1.29 0.32,-0.22 0.56,-0.2 0.93,-0.2 1.2,0 1.19,1.26 2.02,1.26 1.73,0 0.92,-2.64 -2.14,-2.64 -1.37,-0 -2.9,0.77 -2.9,2.13z"/>
   <polygon class="fil0" points="186.71,55.98 189.99,55.98 189.99,48.16 186.71,48.16 "/>
   <path class="fil1" d="M23.09 48.16l0 0.5c-0.92,0 -1.07,0.15 -1.39,0.76 0.45,0.85 0.45,0.76 1.39,0.76l0 4.54c0,1.89 1.89,1.33 1.89,0.5l0 -5.05c1.06,0 0.78,-0.08 1.39,-0.13 0.17,-0.73 0.46,-1.39 -1.39,-1.39 0,-1.96 0.85,-1.28 1.77,-1.26 0.3,-0.45 0.38,-0.2 0.38,-0.88 0,-0.81 -1.88,-0.78 -2.62,-0.6 -0.97,0.23 -1.42,0.99 -1.42,2.24z"/>
   <path class="fil1" d="M150.63 48.66c-1.42,0.12 -1.36,1.51 0,1.51 0,3.98 -0.58,5.8 2.27,5.8 1.05,0 1.4,-0.19 1.77,-0.88 -0.35,-0.65 -0.32,-0.71 -1.03,-0.65 -1.51,0.13 -1.12,-0.38 -1.12,-4.27 2.23,0 1.94,-1.51 0,-1.51l0 -1.64c0,-0.87 -0.89,-1.2 -1.48,-0.73 -0.59,0.46 -0.41,1.38 -0.41,2.37z"/>
   <path class="fil1" d="M124.89 48.66c-1.41,0.12 -1.61,1.51 0,1.51l0 4.04c0,2.51 3.91,2.03 3.91,0.76 0,-0.73 -1.18,-0.5 -1.89,-0.5 -0.27,-1.15 -0.13,-3.04 -0.13,-4.29 0.84,0 1.39,0.04 1.39,-0.88 0,-0.58 -0.77,-0.63 -1.39,-0.63 0,-0.67 0.18,-3.22 -1.37,-2.52 -0.73,0.33 -0.52,1.47 -0.52,2.52z"/>
   <path class="fil1" d="M8.96 50.05l0 4.54c0,1.76 1.71,1.87 1.98,0.34 0.11,-0.62 0.04,-1.33 0.04,-1.98 -0.01,-3.82 1.06,-2.77 2.3,-2.67 1.1,0.09 1.39,-1.59 -0.71,-1.82 -0.31,-0.03 -0.78,0.08 -1.04,0.25 -0.12,0.08 -0.24,0.19 -0.33,0.3l-0.34 0.41c-0.16,-0.69 -0.44,-1.15 -1.16,-0.92 -0.61,0.2 -0.73,0.79 -0.73,1.55z"/>
   <path class="fil1" d="M174.47 50.68c0,1.84 -0.42,5.3 1.01,5.3 2.19,0 -0.11,-5.93 2.14,-5.93 0.73,0 2.02,0.78 2.02,-0.63 0,-0.6 -1.53,-1.37 -2.58,-0.69 -0.51,0.33 -0.3,0.4 -0.7,0.69 -0.1,-1.17 -1.89,-1.92 -1.89,1.26z"/>
   <path class="fil1" d="M162.61 46.9l0 7.82c0,1.89 1.89,1.33 1.89,0.5l0 -8.45c0,-1.4 -1.89,-1.18 -1.89,0.13z"/>
   <path class="fil1" d="M71.4 46.77l0 8.2c0,1.3 1.89,1.53 1.89,-0.25l0 -7.82c0,-1.31 -1.89,-1.53 -1.89,-0.13z"/>
   <path class="fil1" d="M96.89 49.67l0 5.3c0,0.54 0.39,1.01 0.88,1.01 1.32,0 1.01,-1.69 1.01,-3.03 -0.02,-4.12 1.75,-2.65 2.52,-2.65 0.99,0 0.92,-1.86 -1.01,-1.87 -0.92,-0 -1.07,0.6 -1.64,0.98 -0.02,-0.74 -0.48,-1.01 -0.98,-0.96 -0.62,0.06 -0.79,0.56 -0.79,1.21z"/>
   <path class="fil1" d="M42.89 49.42l0 5.55c0,1.3 1.89,1.53 1.89,-0.25l0 -5.17c0,-1.31 -1.89,-1.53 -1.89,-0.13z"/>
   <path class="fil1" d="M42.89 46.52c0,1.8 1.89,1.16 1.89,0.25 0,-1.3 -1.89,-1.14 -1.89,-0.25z"/>
   <g>
    <path class="fil2" d="M198.47 10.85l5.8 0c3.33,0 -0.15,3.82 -0.83,4.84l-3.05 4.39c-2.39,3.53 -4.93,6.94 -7.29,10.5l-3.61 5.23c-0.24,0.35 -0.4,0.53 -0.63,0.88 -0.35,0.53 -1.11,1.29 -1.11,1.92 0,0.72 2.35,0.84 3.23,0.7 2.73,-0.42 9.9,0.38 11.79,-0.45 0.9,-0.4 1.47,-1.24 2.01,-2.02 0.28,-0.4 0.51,-0.77 0.81,-1.21l14.18 -20.64c0.79,-1.19 1.57,-2.47 2.53,-3.53 0.31,-0.35 0.91,-0.61 1.54,-0.61l8.45 0c0.56,0 0.76,0.52 0.76,1.01 0,0.83 -1.59,2.73 -2.09,3.46l-14.92 21.29c-2.81,3.79 1.21,2.82 6.17,2.88 0.73,0.01 0.95,0.14 1.76,0.13l6.94 -0c1.92,0 2.84,-1.18 3.76,-2.55l15.19 -22.66c0.88,-1.32 1.87,-2.62 1.87,-4.69 0,-7.92 -11.88,-9.67 -17.81,-9.67 -2.22,0 -4.26,0.02 -6.4,0.02l-12.87 0c-2.17,0 -4.04,0 -6.3,0 -5.33,0 -10.66,-0.03 -15.99,-0.03 -4.92,0 -8.86,3.17 -11.36,6.95l-7.9 11.4c-0.87,1.29 -1.7,2.43 -2.57,3.74l-3.91 5.68c-0.26,0.37 -0.45,0.6 -0.68,0.96l-5.88 8.5c-1.42,2.03 -0.72,2.28 2.73,2.1l12.62 -0.25c1,-0.02 1.74,-0.36 2.3,-0.86 0.57,-0.51 0.96,-1.1 1.41,-1.75l15.95 -22.66c1.05,-1.53 1.79,-3 3.43,-3zm-80.49 -2.27c1.03,0.49 14.76,0.25 17.03,0.25 2.15,0 13.3,-0.13 15.14,0 0.38,0.03 0.6,0.09 0.85,0.28 1.41,1.06 -0.2,2.83 -0.85,3.75l-11.3 16.32c-1.86,2.81 -2.05,3.48 -5.73,3.48 -9.79,-0.01 -19.62,-0.03 -29.41,-0 -1.19,-0.06 -2.75,0.25 -1.28,-1.68 0.68,-0.89 3.53,-3.93 1.13,-4.46 -0.7,-0.1 -1.25,-0.12 -1.78,-0.08 -4.78,0.01 -9.77,0 -14.53,-0.01 -1.08,0.15 -3.16,3.73 -3.73,4.56 -0.73,1.08 -0.98,1.9 -0.98,3.31 0,4.83 8.58,4.92 11.98,4.92l29.39 0.13c0.71,0 1.44,-0.01 2.15,-0.01 0.75,0.01 1.13,0.14 2.01,0.13 3.68,-0.02 13.92,0.16 16.76,-0.15 1.09,-0.12 2.4,-0.51 3.3,-0.86 0.24,-0.09 0.48,-0.16 0.73,-0.28 3.4,-1.51 5.77,-5.07 7.82,-8.08l14.05 -19.76c0.62,-0.84 1.18,-1.65 1.77,-2.52 0.59,-0.87 1.19,-1.62 1.79,-2.5 1.91,-2.77 3.08,-5.32 -5.07,-5.26 -2.68,-0.05 -5.71,0.01 -8.19,0.01l-35.9 -0.1c-2.35,0.32 -5.46,5.11 -6.74,7.1 -0.39,0.53 -0.57,0.8 -0.41,1.48zm-105.72 11.98c0,2.58 5.16,3.16 7.06,3.15l41 -0c0.7,-0 1.72,0.02 2.24,0.41 0.09,0.07 0.41,0.38 0.41,0.47 0,1.11 -1.33,2.94 -1.87,3.68 -0.87,1.17 -2.05,2.88 -3.19,3.75 -0.89,0.68 -2.17,0.65 -3.52,0.64l-33.68 0c-2.01,0 -3.56,0.13 -5.55,0.13 -3.33,0 -8.29,-0.32 -10.34,0.89 -1.47,0.86 -3.48,3.55 -3.72,4.62 -0.43,1.87 4.31,0.99 7.02,1.29 1.51,0.17 4.04,0.02 5.66,0.02l39.23 0c5.93,0 12.28,0.87 17.13,-2.29 1.8,-1.18 3.19,-2.06 4.79,-3.67l1.39 -1.39c0.46,-0.46 0.98,-0.9 1.37,-1.41 2.03,-2.62 2.57,-2.9 4.87,-6.36 2.09,-3.13 3.06,-5.92 -1.26,-7.12 -0.72,-0.2 -1.42,-0.36 -2.42,-0.35 -3.14,0.01 -4.78,-0.42 -8.35,-0.02 -1.51,0.17 -4.04,0.02 -5.66,0.02l-28.76 0c-1.6,0 -2.7,-1.16 -1.44,-3.21 0.34,-0.55 0.58,-0.95 0.91,-1.48 3.1,-4.97 4.13,-4.77 9.61,-4.77 6.45,0 12.49,-0.13 18.92,-0.13l23.72 0c4.56,0 4.1,0.47 6.77,-2.81 4.46,-5.38 -0.48,-4.28 -6.75,-4.43 -0.08,-0.01 -6.67,-0.01 -9.35,-0.01 -3.26,0 -6.09,0 -9.34,0l-11.69 0c-6.1,0.01 -12.2,0.13 -18.35,0.31 -4.24,0.13 -8.99,0.8 -12.64,3.01 -0.85,0.51 -1.61,0.98 -2.37,1.54 -1.27,0.92 -3.62,3.05 -4.52,4.18 -0.98,1.23 -1.88,2 -3.1,3.84l-3.13 4.69c-0.5,0.8 -1.11,1.85 -1.11,2.8z"/>
    <g>
     <g style="clip-path:url(#id0)">
      <image x="1.07" y="0" width="250.63" height="39.73" xlink:href="logo-login_Images\logo-login_ImgID1.png"/>
     </g>
    </g>
   </g>
  </g>
 </g>
</svg>
